# xmcd CD database file
#
# Track frame offsets:
#	150
#	23025
#	54570
#	88395
#
# Disc length: 1281 seconds
#
# Revision: 0
# Processed by: cddbd v1.5.1PL0 Copyright (c) Steve Scherf et al.
# Submitted via: CDex 1.51
#
DISCID=2d04ff04
DTITLE=吉沢梨絵 from VOCALAND - Give it up
DYEAR=1997
DGENRE=JPop
TTITLE0=Give it up
TTITLE1=Give it up 〜Extended "吉沢" Riemix〜
TTITLE2=Give it up 〜Instrumental〜
TTITLE3=cd+
EXTD=YEAR: 1997
EXTT0=
EXTT1=
EXTT2=
EXTT3=
PLAYORDER=
